<svg width="500" height="500" viewBox="0 0 500 500" fill="none" xmlns="http://www.w3.org/2000/svg">
<path d="M256 43L302.699 186.724H453.82L331.56 275.551L378.259 419.276L256 330.449L133.741 419.276L180.439 275.551L58.1802 186.724H209.301L256 43Z" fill="#DFDFDF"/>
<path d="M154.127 182C148.026 182 142.809 181.254 138.476 179.763C134.144 178.272 130.518 176.342 127.6 173.974C124.771 171.605 122.516 169.105 120.836 166.474C119.156 163.754 117.874 161.211 116.99 158.842C116.194 156.474 115.663 154.544 115.398 153.053C115.133 151.561 115 150.816 115 150.816H133.304C133.304 150.816 133.392 151.342 133.569 152.395C133.834 153.447 134.365 154.807 135.161 156.474C135.956 158.053 137.106 159.632 138.609 161.211C140.201 162.789 142.279 164.149 144.843 165.289C147.496 166.342 150.767 166.868 154.658 166.868C160.671 166.868 165.225 165.553 168.319 162.921C171.503 160.202 173.094 156.868 173.094 152.921C173.094 149.588 171.901 146.956 169.513 145.026C167.126 143.009 163.589 141.518 158.902 140.553L145.904 137.789C140.864 136.737 136.133 135.158 131.712 133.053C127.379 130.947 123.887 128.096 121.234 124.5C118.581 120.904 117.255 116.298 117.255 110.684C117.255 104.807 118.714 99.7193 121.632 95.4211C124.638 91.1228 128.75 87.8333 133.967 85.5526C139.184 83.1842 145.285 82 152.271 82C158.902 82 164.385 82.9649 168.717 84.8947C173.05 86.8246 176.499 89.193 179.063 92C181.716 94.807 183.661 97.614 184.899 100.421C186.137 103.228 186.933 105.596 187.286 107.526C187.728 109.456 187.949 110.421 187.949 110.421H170.309C170.309 110.421 170.132 109.763 169.778 108.447C169.425 107.044 168.629 105.465 167.391 103.711C166.153 101.956 164.296 100.421 161.82 99.1053C159.344 97.7018 156.029 97 151.873 97C145.948 97 141.615 98.3158 138.874 100.947C136.222 103.579 134.895 106.43 134.895 109.5C134.895 112.658 136.133 115.114 138.609 116.868C141.085 118.623 144.401 119.982 148.557 120.947L162.483 123.842C167.7 124.982 172.475 126.693 176.808 128.974C181.141 131.254 184.589 134.281 187.154 138.053C189.718 141.737 191 146.342 191 151.868C191 157.482 189.585 162.57 186.756 167.132C183.926 171.693 179.77 175.333 174.288 178.053C168.806 180.684 162.086 182 154.127 182Z" fill="#FFA903" fill-opacity="0.75"/>
<path d="M163.961 243.508L180.436 219.248L171.543 213.209L174.668 208.606L197.759 224.286L194.633 228.889L185.74 222.85L169.266 247.111L163.961 243.508Z" fill="#FFA903" fill-opacity="0.75"/>
<path d="M177.536 252.726L207.082 230.617L213.986 235.305L204.371 270.949L198.833 267.188L200.897 259.699L189.274 251.807L183.075 256.488L177.536 252.726ZM193.92 248.237L202.501 254.064L206.872 238.396L193.92 248.237Z" fill="#FFA903" fill-opacity="0.75"/>
<path d="M208.537 273.778L228.137 244.915L239.371 252.543C241.451 253.955 242.954 255.546 243.881 257.315C244.851 259.076 245.263 260.875 245.116 262.713C245.013 264.543 244.406 266.277 243.293 267.915C242.04 269.761 240.424 271.077 238.447 271.862C236.488 272.622 234.352 272.69 232.038 272.069L230.458 288.663L224.568 284.664L226.193 269.012L221.629 265.913L213.842 277.38L208.537 273.778ZM236.167 257.092L230.316 253.119L224.569 261.583L230.42 265.556C231.902 266.563 233.315 266.915 234.661 266.612C236.023 266.284 237.093 265.548 237.87 264.404C238.647 263.259 238.928 262.007 238.713 260.645C238.498 259.283 237.649 258.099 236.167 257.092Z" fill="#FFA903" fill-opacity="0.75"/>
<path d="M242.085 296.558L258.559 272.298L249.666 266.259L252.791 261.656L275.882 277.336L272.757 281.939L263.864 275.9L247.389 300.161L242.085 296.558Z" fill="#FFA903" fill-opacity="0.75"/>
<path d="M260.683 309.188L280.283 280.324L299.629 293.462L296.504 298.064L282.462 288.529L277.483 295.862L289.769 304.205L286.723 308.691L274.437 300.347L269.113 308.187L283.35 317.855L280.225 322.457L260.683 309.188Z" fill="#FFA903" fill-opacity="0.75"/>
<path d="M285.404 325.975L305.004 297.111L316.237 304.739C318.317 306.152 319.821 307.742 320.747 309.511C321.717 311.272 322.129 313.071 321.983 314.91C321.88 316.739 321.272 318.473 320.16 320.112C318.906 321.958 317.291 323.274 315.314 324.059C313.355 324.818 311.218 324.887 308.904 324.266L307.325 340.86L301.435 336.86L303.059 321.208L298.496 318.109L290.709 329.577L285.404 325.975ZM313.034 309.289L307.183 305.316L301.435 313.78L307.286 317.753C308.768 318.759 310.182 319.111 311.527 318.809C312.89 318.48 313.96 317.744 314.737 316.6C315.514 315.456 315.795 314.203 315.58 312.841C315.364 311.479 314.516 310.295 313.034 309.289Z" fill="#FFA903" fill-opacity="0.75"/>
<path d="M243.675 220.311L228 213.16V210.155L243.675 203.004V207.302L233.615 211.639L243.675 216.013V220.311Z" fill="#263138"/>
<path d="M247.909 231L261.023 193H265.582L252.469 231H247.909Z" fill="#263138"/>
<path d="M269.325 220.311V216.013L279.385 211.639L269.325 207.302V203.004L285 210.155V213.16L269.325 220.311Z" fill="#263138"/>
</svg>
